<?xml version="1.0" encoding="utf-8"?>
<!-- Generator: Adobe Illustrator 19.2.1, SVG Export Plug-In . SVG Version: 6.00 Build 0)  -->
<svg version="1.1" id="layer" xmlns="http://www.w3.org/2000/svg" xmlns:xlink="http://www.w3.org/1999/xlink" x="0px" y="0px"
	 viewBox="0 0 652 652" style="enable-background:new 0 0 652 652;" xml:space="preserve">
<style type="text/css">
	.st0{fill:#1E285A;}
	.st1{filter:url(#Adobe_OpacityMaskFilter);}
	.st2{fill:#FFFFFF;}
	.st3{mask:url(#b_1_);fill:#1E285A;}
	.st4{filter:url(#Adobe_OpacityMaskFilter_1_);}
	.st5{mask:url(#d_1_);fill:#1E285A;}
	.st6{filter:url(#Adobe_OpacityMaskFilter_2_);}
	.st7{mask:url(#f_1_);fill:#1E285A;}
</style>
<g>
	<path class="st0" d="M585.7,291.7h11.1c3.9,0,7.1,3.2,7.1,7.2c0,4-3.2,7.2-7.1,7.2h-11.1C585.7,306.1,585.7,291.7,585.7,291.7z
		 M627,348.2l-17.5-31.1c8.5-3.8,10.8-10.8,10.8-19.5c0-9.3-5.4-19.2-22-19.2h-29.4v69.8h16.8v-28.9h9.2l13.8,28.9H627L627,348.2z
		 M437.5,348.3l-38.8-44.3v44.3h-16.8v-69.8h13.5l34.5,39.4v-39.4h16.8v69.8 M234.3,348.3l-38.8-44.3v44.3h-16.8v-69.8h13.5
		l34.5,39.4v-39.4h16.8v69.8 M61.5,327.3c0,4.4-3.5,7.9-7.8,7.9h-10v-15.9h10C58,319.4,61.5,322.9,61.5,327.3L61.5,327.3z
		 M43.7,291.5H51c4.1,0,7.4,3.3,7.4,7.4v0c0,4.1-3.3,7.4-7.4,7.4h-7.2V291.5L43.7,291.5z M78.8,328.9c0-14.2-10.5-18-10.5-18
		s6.1-3.6,6.1-12.8c0-10.5-5.7-19.6-22.3-19.6H27v69.8h31.8C69.4,348.3,78.8,340.7,78.8,328.9L78.8,328.9z M274.8,348.3v-69.8h41.4
		v13.8h-24.6v13.1h20v13.8h-20v15.4H317v13.8"/>
	<g transform="translate(140.423 .143)">
		<defs>
			<filter id="Adobe_OpacityMaskFilter" filterUnits="userSpaceOnUse" x="330.8" y="276" width="73.1" height="74">
				<feColorMatrix  type="matrix" values="1 0 0 0 0  0 1 0 0 0  0 0 1 0 0  0 0 0 1 0"/>
			</filter>
		</defs>
		<mask maskUnits="userSpaceOnUse" x="330.8" y="276" width="73.1" height="74" id="b_1_">
			<g class="st1">
				<path id="a_1_" class="st2" d="M403.9,276h-73.1v74h73.1V276z"/>
			</g>
		</mask>
		<path class="st3" d="M367.4,334c-11.4,0-20.7-9.4-20.7-21c0-11.6,9.3-21,20.7-21c11.4,0,20.7,9.4,20.7,21S378.8,334,367.4,334
			 M367.4,276c-20.2,0-36.6,16.6-36.6,37c0,20.4,16.4,37,36.6,37s36.6-16.6,36.6-37C403.9,292.6,387.5,276,367.4,276"/>
	</g>
	<path class="st0" d="M111.9,319.2v-13.8c0-7.8,6.2-14.1,13.9-14.1h0c7.7,0,13.9,6.3,13.9,14.1v13.8
		C139.7,319.2,111.9,319.2,111.9,319.2z"/>
	<g transform="translate(14.74 17.5)">
		<defs>
			<filter id="Adobe_OpacityMaskFilter_1_" filterUnits="userSpaceOnUse" x="59.5" y="313.6" width="45.1" height="44.9">
				<feColorMatrix  type="matrix" values="1 0 0 0 0  0 1 0 0 0  0 0 1 0 0  0 0 0 1 0"/>
			</filter>
		</defs>
		<mask maskUnits="userSpaceOnUse" x="59.5" y="313.6" width="45.1" height="44.9" id="d_1_">
			<g class="st4">
				<path id="c_1_" class="st2" d="M59.5,358.5h45.1v-44.9H59.5V358.5z"/>
			</g>
		</mask>
		<path class="st5" d="M91.4,313.6l-32,44.9h20.8l24.4-44.9"/>
	</g>
	<g transform="translate(33.23 17.5)">
		<defs>
			<filter id="Adobe_OpacityMaskFilter_2_" filterUnits="userSpaceOnUse" x="99" y="313.6" width="45.1" height="44.9">
				<feColorMatrix  type="matrix" values="1 0 0 0 0  0 1 0 0 0  0 0 1 0 0  0 0 0 1 0"/>
			</filter>
		</defs>
		<mask maskUnits="userSpaceOnUse" x="99" y="313.6" width="45.1" height="44.9" id="f_1_">
			<g class="st6">
				<path id="e_1_" class="st2" d="M99,358.5h45.1v-44.9H99V358.5z"/>
			</g>
		</mask>
		<path class="st7" d="M112.2,313.6H99l24.3,44.9h20.8"/>
	</g>
</g>
</svg>
